<svg width="38" height="38" viewBox="0 0 38 38" fill="none" xmlns="http://www.w3.org/2000/svg">
<path d="M30.7188 0.25C32.6556 0.25 34.3117 0.937663 35.687 2.31299C37.0623 3.68831 37.75 5.3444 37.75 7.28125V30.7188C37.75 32.6556 37.0623 34.3117 35.687 35.687C34.3117 37.0623 32.6556 37.75 30.7188 37.75H26.1289V23.2236H30.9873L31.7197 17.5596H26.1289V13.9463C26.1289 13.0348 26.3202 12.3512 26.7026 11.8955C27.0851 11.4398 27.8298 11.2119 28.9365 11.2119L31.915 11.1875V6.13379C30.8896 5.9873 29.4411 5.91406 27.5693 5.91406C25.3558 5.91406 23.5858 6.5651 22.2593 7.86719C20.9328 9.16927 20.2695 11.0085 20.2695 13.3848V17.5596H15.3867V23.2236H20.2695V37.75H7.28125C5.3444 37.75 3.68831 37.0623 2.31299 35.687C0.937663 34.3117 0.25 32.6556 0.25 30.7188V7.28125C0.25 5.3444 0.937663 3.68831 2.31299 2.31299C3.68831 0.937663 5.3444 0.25 7.28125 0.25H30.7188Z" fill="#CA4326"/>
</svg>
