<svg width="40" height="40" viewBox="0 0 40 40" fill="none" xmlns="http://www.w3.org/2000/svg">
<path d="M9.93333 18.8066C11.1924 17.5507 12.804 16.708 14.5537 16.3906C16.3035 16.0733 18.1084 16.2963 19.7283 17.0299M5.11667 13.0366C8.10648 10.2882 12.017 8.75899 16.0781 8.75005C20.1392 8.7411 24.0564 10.2531 27.0583 12.9883M1.25 6.47493C5.46909 3.08916 10.7174 1.24483 16.1271 1.24695C21.5367 1.24907 26.7836 3.09752 31 6.4866M28.7167 18.7499C31.3688 18.7499 33.9124 19.8035 35.7877 21.6789C37.6631 23.5542 38.7167 26.0978 38.7167 28.7499C38.7167 31.4021 37.6631 33.9456 35.7877 35.821C33.9124 37.6964 31.3688 38.7499 28.7167 38.7499C26.0645 38.7499 23.521 37.6964 21.6456 35.821C19.7702 33.9456 18.7167 31.4021 18.7167 28.7499C18.7167 26.0978 19.7702 23.5542 21.6456 21.6789C23.521 19.8035 26.0645 18.7499 28.7167 18.7499Z" stroke="#CA4326" stroke-width="1.5" stroke-linecap="round" stroke-linejoin="round"/>
<path d="M33.1669 25.8434L28.3335 32.2984C28.226 32.4414 28.089 32.5597 27.9319 32.6453C27.7748 32.7309 27.6011 32.7818 27.4226 32.7946C27.2441 32.8074 27.065 32.7818 26.8972 32.7195C26.7295 32.6572 26.577 32.5596 26.4502 32.4334L23.9502 29.9334" stroke="#CA4326" stroke-width="1.5" stroke-linecap="round" stroke-linejoin="round"/>
</svg>
