<svg width="32" height="32" viewBox="0 0 32 32" fill="none" xmlns="http://www.w3.org/2000/svg">
<path d="M19 14H24" stroke="white" stroke-width="1.6" stroke-linecap="round" stroke-linejoin="round"/>
<path d="M19 18H24" stroke="white" stroke-width="1.6" stroke-linecap="round" stroke-linejoin="round"/>
<path d="M11.5125 18C13.1693 18 14.5125 16.6569 14.5125 15C14.5125 13.3431 13.1693 12 11.5125 12C9.8556 12 8.51245 13.3431 8.51245 15C8.51245 16.6569 9.8556 18 11.5125 18Z" stroke="white" stroke-width="1.6" stroke-linecap="round" stroke-linejoin="round"/>
<path d="M7.63867 20.9999C7.86062 20.1413 8.36153 19.3807 9.06272 18.8377C9.76391 18.2947 10.6256 18 11.5125 18C12.3994 18 13.2611 18.2946 13.9623 18.8375C14.6636 19.3805 15.1645 20.141 15.3865 20.9997" stroke="white" stroke-width="1.6" stroke-linecap="round" stroke-linejoin="round"/>
<path d="M27 5.2002H5.00001C4.0059 5.2002 3.20001 6.00609 3.20001 7.0002V25.0002C3.20001 25.9943 4.0059 26.8002 5.00001 26.8002H27C27.9941 26.8002 28.8 25.9943 28.8 25.0002V7.0002C28.8 6.00609 27.9941 5.2002 27 5.2002Z" stroke="white" stroke-width="1.6" stroke-linecap="round" stroke-linejoin="round"/>
</svg>
