<svg width="32" height="32" viewBox="0 0 32 32" fill="none" xmlns="http://www.w3.org/2000/svg">
<path d="M26.084 16.1672C26.4292 14.8725 26.4919 13.4064 26.271 11.807L25.1387 3.56678C25.094 3.24283 24.9385 2.9465 24.7008 2.73217C24.463 2.51783 24.1589 2.39986 23.8443 2.3999H8.15467C7.84004 2.39986 7.53595 2.51783 7.2982 2.73217C7.06044 2.9465 6.90495 3.24283 6.86028 3.56678L5.72932 11.8057C5.50835 13.4064 5.57111 14.8725 5.91498 16.1658C7.04463 20.4281 10.5578 23.4989 14.692 24.0457V26.8799H12.0771V29.5999H19.9219V26.8799H17.307V24.0457C21.4412 23.4989 24.9543 20.4281 26.084 16.1672ZM22.7107 5.1199L23.456 10.5599H8.54168L9.28825 5.1199H22.7107ZM8.43578 15.4423C8.26319 14.7977 8.19913 14.0701 8.22789 13.2799H23.7724C23.7998 14.0701 23.7358 14.7977 23.5645 15.4437C23.1048 17.1646 22.1167 18.6819 20.751 19.7645C19.3852 20.847 17.7166 21.4354 15.9995 21.4399C14.2823 21.4355 12.6137 20.8469 11.2481 19.7641C9.88245 18.6812 8.8948 17.1635 8.43578 15.4423Z" stroke="white" stroke-width="1.04"/>
</svg>
