<svg width="32" height="34" viewBox="0 0 32 34" fill="none" xmlns="http://www.w3.org/2000/svg">
<path d="M16.2286 23.8571C22.5404 23.8571 27.6572 18.7404 27.6572 12.4286C27.6572 6.11675 22.5404 1 16.2286 1C9.9168 1 4.80005 6.11675 4.80005 12.4286C4.80005 18.7404 9.9168 23.8571 16.2286 23.8571Z" stroke="white" stroke-width="1.2" stroke-linecap="round" stroke-linejoin="round"/>
<path d="M16.229 19.2856C20.0161 19.2856 23.0861 16.2155 23.0861 12.4284C23.0861 8.64134 20.0161 5.57129 16.229 5.57129C12.4419 5.57129 9.37183 8.64134 9.37183 12.4284C9.37183 16.2155 12.4419 19.2856 16.229 19.2856Z" stroke="white" stroke-width="1.2" stroke-linecap="round" stroke-linejoin="round"/>
<path d="M23.0876 21.5708V33.0001L16.2294 29.5715L9.37329 33.0001V21.5718" stroke="white" stroke-width="1.2" stroke-linecap="round" stroke-linejoin="round"/>
</svg>
