<svg width="39" height="38" viewBox="0 0 39 38" fill="none" xmlns="http://www.w3.org/2000/svg">
<path fill-rule="evenodd" clip-rule="evenodd" d="M11.9365 0.3625C13.936 0.270455 14.5735 0.25 19.6667 0.25C24.7598 0.25 25.3973 0.272159 27.3951 0.3625C29.3928 0.452841 30.7564 0.771591 31.9496 1.23352C33.199 1.70568 34.3326 2.44375 35.2701 3.3983C36.2246 4.33409 36.961 5.46591 37.4314 6.71705C37.8951 7.91023 38.2121 9.27386 38.3042 11.2682C38.3962 13.271 38.4167 13.9085 38.4167 19C38.4167 24.0932 38.3945 24.7307 38.3042 26.7301C38.2138 28.7244 37.8951 30.0881 37.4314 31.2812C36.961 32.5325 36.2234 33.6662 35.2701 34.6034C34.3326 35.558 33.199 36.2943 31.9496 36.7648C30.7564 37.2284 29.3928 37.5455 27.3985 37.6375C25.3973 37.7295 24.7598 37.75 19.6667 37.75C14.5735 37.75 13.936 37.7278 11.9365 37.6375C9.94223 37.5472 8.57859 37.2284 7.38541 36.7648C6.13413 36.2943 5.00044 35.5567 4.06325 34.6034C3.10935 33.667 2.37117 32.5339 1.90018 31.283C1.43825 30.0898 1.1212 28.7261 1.02916 26.7318C0.937111 24.729 0.916656 24.0915 0.916656 19C0.916656 13.9068 0.938816 13.2693 1.02916 11.2716C1.1195 9.27386 1.43825 7.91023 1.90018 6.71705C2.37187 5.46605 3.11061 4.33292 4.06495 3.39659C5.00082 2.4429 6.13337 1.70473 7.3837 1.23352C8.57688 0.771591 9.94052 0.454545 11.9348 0.3625H11.9365ZM27.2434 3.7375C25.2661 3.64716 24.6729 3.62841 19.6667 3.62841C14.6604 3.62841 14.0672 3.64716 12.09 3.7375C10.261 3.82102 9.26893 4.12614 8.60757 4.38352C7.73313 4.72443 7.10757 5.12841 6.45132 5.78466C5.82923 6.38986 5.35049 7.12662 5.05018 7.94091C4.79279 8.60227 4.48768 9.59432 4.40416 11.4233C4.31382 13.4006 4.29507 13.9938 4.29507 19C4.29507 24.0063 4.31382 24.5994 4.40416 26.5767C4.48768 28.4057 4.79279 29.3977 5.05018 30.0591C5.35018 30.8722 5.82916 31.6102 6.45132 32.2153C7.05643 32.8375 7.7945 33.3165 8.60757 33.6165C9.26893 33.8739 10.261 34.179 12.09 34.2625C14.0672 34.3528 14.6587 34.3716 19.6667 34.3716C24.6746 34.3716 25.2661 34.3528 27.2434 34.2625C29.0723 34.179 30.0644 33.8739 30.7257 33.6165C31.6002 33.2756 32.2257 32.8716 32.882 32.2153C33.5042 31.6102 33.9831 30.8722 34.2831 30.0591C34.5405 29.3977 34.8456 28.4057 34.9292 26.5767C35.0195 24.5994 35.0382 24.0063 35.0382 19C35.0382 13.9938 35.0195 13.4006 34.9292 11.4233C34.8456 9.59432 34.5405 8.60227 34.2831 7.94091C33.9422 7.06648 33.5382 6.44091 32.882 5.78466C32.2768 5.16262 31.54 4.68388 30.7257 4.38352C30.0644 4.12614 29.0723 3.82102 27.2434 3.7375ZM17.2718 24.7801C18.6093 25.3369 20.0986 25.412 21.4853 24.9927C22.872 24.5734 24.0702 23.6857 24.8751 22.4811C25.68 21.2765 26.0418 19.8299 25.8986 18.3882C25.7554 16.9466 25.1161 15.5994 24.09 14.5767C23.4358 13.923 22.6449 13.4224 21.774 13.111C20.9032 12.7997 19.9742 12.6853 19.0539 12.776C18.1335 12.8668 17.2448 13.1605 16.4515 13.636C15.6583 14.1115 14.9804 14.757 14.4666 15.5259C13.9528 16.2948 13.6158 17.1681 13.48 18.0829C13.3442 18.9977 13.4129 19.9312 13.6812 20.8162C13.9495 21.7013 14.4107 22.5158 15.0315 23.2012C15.6524 23.8866 16.4175 24.4259 17.2718 24.7801ZM12.8519 12.1852C13.7468 11.2903 14.8092 10.5804 15.9785 10.0961C17.1478 9.61174 18.401 9.36246 19.6667 9.36246C20.9323 9.36246 22.1855 9.61174 23.3548 10.0961C24.5241 10.5804 25.5865 11.2903 26.4814 12.1852C27.3764 13.0802 28.0863 14.1426 28.5706 15.3119C29.0549 16.4812 29.3042 17.7344 29.3042 19C29.3042 20.2656 29.0549 21.5188 28.5706 22.6881C28.0863 23.8574 27.3764 24.9198 26.4814 25.8148C24.674 27.6222 22.2227 28.6375 19.6667 28.6375C17.1106 28.6375 14.6593 27.6222 12.8519 25.8148C11.0445 24.0074 10.0291 21.556 10.0291 19C10.0291 16.444 11.0445 13.9926 12.8519 12.1852ZM31.4417 10.7977C31.6634 10.5885 31.841 10.337 31.9638 10.0579C32.0866 9.77886 32.1521 9.47801 32.1566 9.17318C32.161 8.86834 32.1043 8.56571 31.9896 8.2832C31.875 8.00069 31.7049 7.74405 31.4893 7.52848C31.2737 7.3129 31.0171 7.14277 30.7346 7.02816C30.4521 6.91354 30.1495 6.85678 29.8446 6.86122C29.5398 6.86566 29.2389 6.93123 28.9599 7.05403C28.6808 7.17683 28.4293 7.35437 28.2201 7.57614C27.8132 8.00744 27.5905 8.58032 27.5991 9.17318C27.6077 9.76603 27.8471 10.3322 28.2664 10.7514C28.6856 11.1707 29.2518 11.41 29.8446 11.4187C30.4375 11.4273 31.0104 11.2046 31.4417 10.7977Z" fill="#CA4326"/>
</svg>
