<svg width="18" height="18" viewBox="0 0 18 18" fill="none" xmlns="http://www.w3.org/2000/svg">
<path d="M14 6.64706C14 3.53176 11.5342 1 8.5 1C5.46583 1 3 3.53176 3 6.64706C3 10.8824 8.5 17 8.5 17C8.5 17 14 10.8824 14 6.64706ZM6.66667 6.64706C6.66667 5.61176 7.49167 4.76471 8.5 4.76471C9.50833 4.76471 10.3333 5.61176 10.3333 6.64706C10.3333 7.14629 10.1402 7.62507 9.79636 7.97808C9.45255 8.33109 8.98623 8.52941 8.5 8.52941C8.01377 8.52941 7.54745 8.33109 7.20364 7.97808C6.85982 7.62507 6.66667 7.14629 6.66667 6.64706Z" fill="#CA4326"/>
</svg>
