<svg width="14" height="14" viewBox="0 0 14 14" fill="none" xmlns="http://www.w3.org/2000/svg">
<path d="M11.7158 7.38666L7.00025 12.1022L2.28914 7.38666C2.24262 7.34682 2.20483 7.29779 2.17815 7.24265C2.15148 7.18751 2.13648 7.12745 2.13412 7.06624C2.13176 7.00503 2.14207 6.94399 2.16441 6.88696C2.18676 6.82993 2.22065 6.77813 2.26396 6.73481C2.30728 6.6915 2.35908 6.65761 2.41611 6.63527C2.47314 6.61292 2.53418 6.60261 2.59539 6.60497C2.6566 6.60734 2.71666 6.62233 2.7718 6.649C2.82694 6.67568 2.87597 6.71347 2.91581 6.75999L6.55581 10.4V1.22222C6.55581 1.10434 6.60263 0.991295 6.68598 0.907946C6.76933 0.824596 6.88238 0.777771 7.00025 0.777771C7.11813 0.777771 7.23117 0.824596 7.31452 0.907946C7.39787 0.991295 7.4447 1.10434 7.4447 1.22222V10.4L11.0891 6.75999C11.1742 6.68718 11.2835 6.64913 11.3954 6.65345C11.5072 6.65778 11.6133 6.70414 11.6925 6.7833C11.7717 6.86245 11.818 6.96856 11.8223 7.08041C11.8267 7.19227 11.7886 7.30164 11.7158 7.38666Z" fill="#37393B"/>
<path d="M1.22179 12.7778H12.7773C12.8952 12.7778 13.0083 12.8246 13.0916 12.9079C13.175 12.9913 13.2218 13.1043 13.2218 13.2222C13.2218 13.3401 13.175 13.4531 13.0916 13.5365C13.0083 13.6198 12.8952 13.6667 12.7773 13.6667H1.22179C1.10391 13.6667 0.990868 13.6198 0.907519 13.5365C0.824169 13.4531 0.777344 13.3401 0.777344 13.2222C0.777344 13.1043 0.824169 12.9913 0.907519 12.9079C0.990868 12.8246 1.10391 12.7778 1.22179 12.7778Z" fill="#37393B"/>
</svg>
