<svg width="16" height="16" viewBox="0 0 16 16" fill="none" xmlns="http://www.w3.org/2000/svg">
<path d="M1.84435 8.48166L0.666016 9.65999L4.79018 11.4275L6.55852 15.5525L7.73685 14.3742L7.14768 11.4275L9.90851 8.66666L12.9168 15.0867L14.0327 13.9708L13.041 5.53499L15.3977 3.17749C15.5569 3.02375 15.6838 2.83984 15.7712 2.6365C15.8585 2.43316 15.9045 2.21446 15.9064 1.99316C15.9084 1.77186 15.8662 1.5524 15.7824 1.34757C15.6986 1.14274 15.5748 0.956655 15.4183 0.800167C15.2619 0.643679 15.0758 0.519924 14.8709 0.436123C14.6661 0.352321 14.4466 0.310152 14.2253 0.312075C14.004 0.313998 13.7853 0.359975 13.582 0.447323C13.3787 0.534672 13.1948 0.661642 13.041 0.820825L10.6218 3.23999L2.18602 2.24749L1.13185 3.30249L7.50185 6.36082L4.79102 9.07166L1.84435 8.48166Z" fill="#CA4326"/>
</svg>
