<svg width="20" height="20" viewBox="0 0 20 20" fill="none" xmlns="http://www.w3.org/2000/svg">
<path d="M8.75 1.875C7.96375 1.875 7.405 2.43125 7.12875 3.125H6.25C4.53125 3.125 3.125 4.53125 3.125 6.25V13.125C3.12586 13.8465 3.33443 14.5525 3.72577 15.1586C4.11711 15.7647 4.67469 16.2454 5.33188 16.5431L3.75 18.125H5.215L6.48438 16.8556C6.60938 16.8681 6.74563 16.875 6.875 16.875H13.125C13.2544 16.875 13.3912 16.8675 13.5156 16.8556L14.785 18.125H16.25L14.6681 16.5431C15.3253 16.2454 15.8829 15.7647 16.2742 15.1586C16.6656 14.5525 16.8741 13.8465 16.875 13.125V6.25C16.875 4.53125 15.4688 3.125 13.75 3.125H12.8713C12.595 2.43125 12.0363 1.875 11.25 1.875H8.75ZM8.75 3.125H11.25C11.6038 3.125 11.875 3.39625 11.875 3.75V4.375H13.75C14.575 4.375 15.2738 4.8925 15.5275 5.625H4.4725C4.60166 5.25745 4.84238 4.93942 5.16105 4.71532C5.47972 4.49122 5.86043 4.37224 6.25 4.375H8.125V3.75C8.125 3.39625 8.39625 3.125 8.75 3.125ZM4.375 6.875H15.625V10H4.375V6.875ZM4.375 11.25H15.625V13.125C15.625 14.5119 14.5119 15.625 13.125 15.625H6.875C5.48812 15.625 4.375 14.5119 4.375 13.125V11.25Z" fill="#CA4326"/>
<path d="M6.36612 12.2411C6.60054 12.0067 6.91848 11.875 7.25 11.875C7.58152 11.875 7.89946 12.0067 8.13388 12.2411C8.3683 12.4755 8.5 12.7935 8.5 13.125C8.5 13.4565 8.3683 13.7745 8.13388 14.0089C7.89946 14.2433 7.58152 14.375 7.25 14.375C6.91848 14.375 6.60054 14.2433 6.36612 14.0089C6.1317 13.7745 6 13.4565 6 13.125C6 12.7935 6.1317 12.4755 6.36612 12.2411Z" fill="#CA4326"/>
<path d="M11.8661 12.2411C12.1005 12.0067 12.4185 11.875 12.75 11.875C13.0815 11.875 13.3995 12.0067 13.6339 12.2411C13.8683 12.4755 14 12.7935 14 13.125C14 13.4565 13.8683 13.7745 13.6339 14.0089C13.3995 14.2433 13.0815 14.375 12.75 14.375C12.4185 14.375 12.1005 14.2433 11.8661 14.0089C11.6317 13.7745 11.5 13.4565 11.5 13.125C11.5 12.7935 11.6317 12.4755 11.8661 12.2411Z" fill="#CA4326"/>
</svg>
